<svg width="207" height="38" viewBox="0 0 207 38" fill="none" xmlns="http://www.w3.org/2000/svg">
<mask id="mask0_107_671" style="mask-type:luminance" maskUnits="userSpaceOnUse" x="0" y="7" width="25" height="25">
<path d="M25 7H0V32H25V7Z" fill="white"/>
</mask>
<g mask="url(#mask0_107_671)">
<path d="M3.35757 13.9397C2.45937 13.9397 1.60393 13.5948 0.98375 12.9483C0.342173 12.3017 0 11.4612 0 10.556C0 9.65087 0.342173 8.81035 0.98375 8.1638C1.62532 7.51725 2.45937 7.17242 3.35757 7.17242C4.25578 7.17242 5.08982 7.51725 5.73139 8.1638C6.37297 8.81035 6.71514 9.65087 6.71514 10.556C6.71514 11.4612 6.37297 12.3233 5.73139 12.9483C5.1112 13.5733 4.25578 13.9397 3.35757 13.9397Z" fill="#3847EF"/>
<path d="M21.4929 13.8319C20.5947 13.8319 19.7392 13.4871 19.119 12.8405C17.8145 11.5258 17.8145 9.37068 19.119 8.05602C19.7606 7.40947 20.5947 7.06464 21.4929 7.06464C22.3911 7.06464 23.2252 7.40947 23.8667 8.05602C25.1712 9.37068 25.1712 11.5258 23.8667 12.8405C23.2252 13.4871 22.3911 13.8319 21.4929 13.8319Z" fill="#3847EF"/>
<path d="M3.44302 32C2.54482 32 1.68938 31.6552 1.06919 31.0086C0.427622 30.3621 0.0854492 29.5216 0.0854492 28.6164C0.0854492 27.7112 0.427622 26.8707 1.06919 26.2241C1.19751 26.0948 1.34721 25.9655 1.53968 25.8362C1.60384 25.7931 1.668 25.75 1.71077 25.7284C1.83909 25.6638 1.9674 25.5991 2.07433 25.5345C2.13849 25.5129 2.20264 25.4698 2.2668 25.4483C2.39512 25.4052 2.52343 25.3621 2.67313 25.319C2.69452 25.319 2.73729 25.2974 2.75867 25.2974C2.78006 25.2974 2.80144 25.2974 2.80144 25.2759L3.54995 25.2328C3.63549 25.2328 3.74242 25.2543 3.84935 25.2543H3.89212C3.91351 25.2543 3.95628 25.2543 3.97766 25.2543H3.99905H4.04183H4.06321C4.12737 25.2543 4.17013 25.2543 4.2343 25.2543C5.51744 25.2543 6.80059 24.694 7.72018 23.7457C8.63977 22.7759 9.15303 21.4828 9.13164 20.1897V20.1466V20.1034C9.13164 20.0603 9.13164 20.0388 9.11026 19.9957C9.11026 19.9526 9.11026 19.9095 9.08887 19.8664V19.7802C9.08887 19.7155 9.06749 19.6509 9.06749 19.5862L9.13164 18.8319C9.13164 18.8103 9.13164 18.7888 9.15303 18.7672L9.17441 18.7241C9.21719 18.5733 9.23858 18.444 9.30273 18.2931C9.32412 18.2069 9.36688 18.1638 9.38828 18.0991C9.45243 17.9698 9.51659 17.8405 9.58075 17.7328C9.60213 17.6897 9.6449 17.625 9.68769 17.5819C9.81596 17.3879 9.94433 17.2371 10.0726 17.1078C10.7142 16.4612 11.5483 16.1164 12.4464 16.1164C13.3446 16.1164 14.2001 16.4612 14.8203 17.1078C16.1248 18.4224 16.1248 20.5776 14.8203 21.8922C14.6919 22.0216 14.5422 22.1509 14.3498 22.2802C14.2856 22.3233 14.2429 22.3448 14.1787 22.3879C14.0504 22.4526 13.9435 22.5172 13.8151 22.5819C13.751 22.6034 13.6868 22.6466 13.6227 22.6681C13.4943 22.7112 13.3661 22.7543 13.2163 22.7974L13.1308 22.819C13.1094 22.819 13.088 22.8405 13.0666 22.8405L12.3182 22.9052C12.2326 22.9052 12.147 22.8836 12.0401 22.8836H11.976C11.9546 22.8836 11.9118 22.8836 11.8904 22.8836H11.869H11.8262H11.8049C11.7407 22.8836 11.698 22.8836 11.6337 22.8836C10.3507 22.8836 9.06749 23.444 8.14789 24.3922C7.22831 25.3621 6.71505 26.6552 6.73643 27.9483V27.9914V28.0345C6.73643 28.0776 6.73643 28.0991 6.75782 28.1422C6.75782 28.1853 6.75782 28.2284 6.7792 28.2716C6.7792 28.2931 6.7792 28.3362 6.8006 28.3793C6.8006 28.4224 6.82198 28.4871 6.82198 28.5302V28.5517L6.75782 29.2845C6.75782 29.306 6.73643 29.3922 6.71505 29.4138C6.67228 29.5647 6.62951 29.7155 6.58673 29.8233C6.56535 29.8879 6.54396 29.9526 6.50119 30.0172C6.43703 30.1466 6.37287 30.2759 6.30872 30.4052C6.28734 30.4483 6.24456 30.5129 6.20179 30.5776C6.07347 30.75 5.94516 30.9224 5.81685 31.0517C5.19665 31.6552 4.34122 32 3.44302 32Z" fill="#3847EF"/>
<path d="M21.642 32C20.7438 32 19.8884 31.6552 19.2682 31.0087C18.6266 30.3621 18.2844 29.5216 18.2844 28.6164C18.2844 27.7112 18.6266 26.8707 19.2682 26.2242C19.9098 25.5776 20.7438 25.2328 21.642 25.2328C22.5402 25.2328 23.3742 25.5776 24.0159 26.2242C25.3204 27.5388 25.3204 29.694 24.0159 31.0087C23.3742 31.6552 22.5402 32 21.642 32Z" fill="#99E9A5"/>
<path d="M12.5316 32C11.6335 32 10.778 31.6552 10.1578 31.0086C9.51625 30.3621 9.17407 29.5215 9.17407 28.6164C9.17407 27.7112 9.51625 26.8707 10.1578 26.2241C10.2862 26.0948 10.4358 25.9655 10.6283 25.8362C10.6711 25.7931 10.7352 25.7715 10.778 25.7284C10.9064 25.6638 11.0133 25.5991 11.1416 25.5345C11.2057 25.5129 11.2699 25.4698 11.3341 25.4483C11.4623 25.4052 11.5907 25.3621 11.7404 25.319L11.8687 25.2759L12.6386 25.2112C12.7241 25.2112 12.8311 25.2328 12.9166 25.2328H12.9808C13.0235 25.2328 13.0449 25.2328 13.0877 25.2328C13.1091 25.2328 13.1091 25.2328 13.1304 25.2328H13.1518H13.1732C13.2373 25.2328 13.2801 25.2328 13.3443 25.2328C14.6274 25.2328 15.9106 24.6724 16.8302 23.7241C17.7497 22.7543 18.263 21.4612 18.2416 20.1681V20.0172L18.2203 19.9957V19.9741C18.2203 19.931 18.2203 19.9095 18.2203 19.8664L18.1989 19.7586C18.1989 19.694 18.1775 19.6293 18.1775 19.5862L18.2203 18.8534C18.2203 18.8319 18.2416 18.7457 18.263 18.7241C18.3058 18.5517 18.3486 18.4224 18.3914 18.3146C18.4127 18.25 18.4341 18.1853 18.4769 18.1207C18.5411 18.0129 18.5839 17.8836 18.6693 17.7543L18.6908 17.7328C18.7121 17.6896 18.7335 17.6465 18.7763 17.6034C18.9046 17.4095 19.0329 17.2586 19.1613 17.1293C19.8028 16.4828 20.6368 16.1379 21.535 16.1379C22.4333 16.1379 23.2673 16.4828 23.9089 17.1293C25.2134 18.444 25.2134 20.5991 23.9089 21.9138C23.7806 22.0431 23.6309 22.1724 23.4384 22.3017C23.3956 22.3233 23.3742 22.3448 23.3315 22.3664L23.2673 22.4095C23.1604 22.4741 23.032 22.5388 22.9038 22.6034C22.8396 22.625 22.7754 22.6681 22.7113 22.6897C22.583 22.7328 22.4546 22.7759 22.3049 22.819C22.2622 22.819 22.2408 22.8405 22.2194 22.8405C22.198 22.8405 22.1766 22.8405 22.1766 22.8621L21.4281 22.9052C21.3212 22.9052 21.1929 22.8836 21.086 22.8621C21.0432 22.8621 21.0218 22.8621 20.9791 22.8621C20.9576 22.8621 20.9576 22.8621 20.9363 22.8621H20.8721C20.8079 22.8621 20.7652 22.8621 20.701 22.8621C19.4179 22.8621 18.1347 23.4224 17.2151 24.3707C16.2955 25.3405 15.7823 26.6336 15.825 27.9267V27.9698V28.0129C15.825 28.056 15.825 28.0991 15.8465 28.1207C15.8465 28.1638 15.8465 28.2069 15.8465 28.2284C15.8465 28.25 15.8465 28.2931 15.8678 28.3362C15.8678 28.4009 15.8892 28.444 15.8892 28.5086L15.825 29.2629C15.825 29.2845 15.7823 29.3707 15.7823 29.3707C15.7395 29.5215 15.6967 29.6724 15.654 29.8017C15.6326 29.8664 15.6112 29.931 15.5684 29.9741V29.9957C15.5042 30.125 15.4401 30.2328 15.376 30.3621C15.3332 30.4267 15.3117 30.4698 15.2691 30.5345C15.1407 30.7284 15.0124 30.8793 14.8841 31.0086C14.2639 31.6552 13.4298 32 12.5316 32Z" fill="#99E9A5"/>
<path d="M3.44302 22.8621C2.54482 22.8621 1.71077 22.4957 1.06919 21.8707C0.427622 21.2241 0.0854492 20.3836 0.0854492 19.4785C0.0854492 18.5733 0.427622 17.7328 1.06919 17.0862C1.19751 16.9569 1.34721 16.8276 1.53968 16.6983C1.58245 16.6552 1.64662 16.6336 1.71077 16.5905C1.8177 16.5259 1.94601 16.4612 2.07433 16.3966C2.13849 16.375 2.20264 16.3319 2.2668 16.3103C2.39512 16.2672 2.52343 16.2241 2.67313 16.2026L2.75867 16.181C2.78006 16.181 2.78006 16.181 2.80144 16.1595L3.57134 16.0948C3.67827 16.0948 3.78519 16.1164 3.89212 16.1379H3.91351C3.95628 16.1379 3.97766 16.1379 4.02043 16.1379C4.04183 16.1379 4.04183 16.1379 4.06321 16.1379H4.10598H4.12737C4.19152 16.1379 4.2343 16.1379 4.29845 16.1379C5.5816 16.1379 6.86475 15.5776 7.78434 14.6293C8.70393 13.6595 9.21719 12.3664 9.17441 11.0733V11.0302V10.9871C9.17441 10.944 9.17441 10.9009 9.15303 10.8578C9.15303 10.8147 9.15303 10.7931 9.15303 10.75L9.13164 10.6638C9.13164 10.5991 9.11026 10.5345 9.11026 10.4698L9.15303 9.75862V9.73707V9.71552C9.15303 9.69397 9.17441 9.60776 9.17441 9.60776C9.21719 9.43535 9.25996 9.28448 9.30273 9.17672C9.32412 9.11207 9.36688 9.04741 9.38828 8.98276C9.45243 8.85345 9.51659 8.74569 9.58075 8.61638L9.60213 8.59483C9.62356 8.57328 9.66625 8.50862 9.68769 8.46552C9.81596 8.27155 9.94433 8.12069 10.0726 7.99138C10.7142 7.34483 11.5483 7 12.4464 7C13.3446 7 14.2001 7.34483 14.8203 7.99138C16.1248 9.30604 16.1248 11.4612 14.8203 12.7759C14.6919 12.9052 14.5422 13.0345 14.3498 13.1638C14.307 13.2069 14.2642 13.2285 14.2001 13.25L14.1787 13.2716C14.0504 13.3362 13.9435 13.4009 13.8151 13.4655C13.751 13.4871 13.6868 13.5302 13.6227 13.5517C13.4943 13.5948 13.3661 13.6379 13.2163 13.681C13.1949 13.681 13.1522 13.7026 13.1308 13.7026C13.1094 13.7026 13.088 13.7026 13.088 13.7241L12.3395 13.7672C12.2539 13.7672 12.147 13.7457 12.0401 13.7457H11.9973C11.9546 13.7457 11.9332 13.7457 11.8904 13.7457C11.869 13.7457 11.869 13.7457 11.8476 13.7457H11.8262H11.7835C11.7193 13.7457 11.6765 13.7457 11.6124 13.7457C10.3292 13.7457 9.0461 14.306 8.12651 15.2543C7.20692 16.2241 6.69366 17.5172 6.71505 18.8103V18.8535V18.8966C6.71505 18.9397 6.71505 18.9828 6.73643 19.0043C6.73643 19.0474 6.73643 19.0905 6.73643 19.1336C6.73643 19.1552 6.73643 19.1983 6.75782 19.2414C6.75782 19.306 6.7792 19.3491 6.7792 19.4138L6.71505 20.1466C6.71505 20.1681 6.71505 20.1897 6.69366 20.2112L6.67228 20.2759C6.62951 20.4483 6.58673 20.5776 6.54396 20.7069C6.52258 20.7716 6.47981 20.8362 6.45842 20.9009C6.39426 21.0302 6.33011 21.1379 6.26594 21.2672C6.22317 21.3319 6.20179 21.375 6.15902 21.4397C6.0307 21.6336 5.90238 21.7845 5.77408 21.9138C5.19665 22.4957 4.34122 22.8621 3.44302 22.8621Z" fill="#3847EF"/>
</g>
<path d="M31.2955 31V7.72727H35.5114V17.5795H46.2955V7.72727H50.5227V31H46.2955V21.1136H35.5114V31H31.2955ZM59.9489 31.3523C58.8428 31.3523 57.8466 31.1553 56.9602 30.7614C56.0814 30.3598 55.3845 29.7689 54.8693 28.9886C54.3617 28.2083 54.108 27.2462 54.108 26.1023C54.108 25.1174 54.2898 24.303 54.6534 23.6591C55.017 23.0152 55.5133 22.5 56.142 22.1136C56.7708 21.7273 57.4792 21.4356 58.267 21.2386C59.0625 21.0341 59.8845 20.8864 60.733 20.7955C61.7557 20.6894 62.5852 20.5947 63.2216 20.5114C63.858 20.4205 64.3201 20.2841 64.608 20.1023C64.9034 19.9129 65.0511 19.6212 65.0511 19.2273V19.1591C65.0511 18.303 64.7973 17.6402 64.2898 17.1705C63.7822 16.7008 63.0511 16.4659 62.0966 16.4659C61.089 16.4659 60.2898 16.6856 59.6989 17.125C59.1155 17.5644 58.7216 18.0833 58.517 18.6818L54.6761 18.1364C54.9792 17.0758 55.4792 16.1894 56.1761 15.4773C56.8731 14.7576 57.7254 14.2197 58.733 13.8636C59.7405 13.5 60.8542 13.3182 62.0739 13.3182C62.9148 13.3182 63.7519 13.4167 64.5852 13.6136C65.4186 13.8106 66.1799 14.1364 66.8693 14.5909C67.5587 15.0379 68.1117 15.6477 68.5284 16.4205C68.9527 17.1932 69.1648 18.1591 69.1648 19.3182V31H65.2102V28.6023H65.0739C64.8239 29.0871 64.4716 29.5417 64.017 29.9659C63.5701 30.3826 63.0057 30.7197 62.3239 30.9773C61.6496 31.2273 60.858 31.3523 59.9489 31.3523ZM61.017 28.3295C61.8428 28.3295 62.5587 28.1667 63.1648 27.8409C63.7708 27.5076 64.2367 27.0682 64.5625 26.5227C64.8958 25.9773 65.0625 25.3826 65.0625 24.7386V22.6818C64.9337 22.7879 64.714 22.8864 64.4034 22.9773C64.1004 23.0682 63.7595 23.1477 63.3807 23.2159C63.0019 23.2841 62.6269 23.3447 62.2557 23.3977C61.8845 23.4508 61.5625 23.4962 61.2898 23.5341C60.6761 23.6174 60.1269 23.7538 59.642 23.9432C59.1572 24.1326 58.7746 24.3977 58.4943 24.7386C58.214 25.072 58.0739 25.5038 58.0739 26.0341C58.0739 26.7917 58.3504 27.3636 58.9034 27.75C59.4564 28.1364 60.161 28.3295 61.017 28.3295ZM73.483 31V7.72727H77.5966V16.4318H77.767C77.9792 16.0076 78.2784 15.5568 78.6648 15.0795C79.0511 14.5947 79.5739 14.1818 80.233 13.8409C80.892 13.4924 81.733 13.3182 82.7557 13.3182C84.1042 13.3182 85.3201 13.6629 86.4034 14.3523C87.4943 15.0341 88.358 16.0455 88.9943 17.3864C89.6383 18.7197 89.9602 20.3561 89.9602 22.2955C89.9602 24.2121 89.6458 25.8409 89.017 27.1818C88.3883 28.5227 87.5322 29.5455 86.4489 30.25C85.3655 30.9545 84.1383 31.3068 82.767 31.3068C81.767 31.3068 80.9375 31.1402 80.2784 30.8068C79.6193 30.4735 79.089 30.072 78.6875 29.6023C78.2936 29.125 77.9867 28.6742 77.767 28.25H77.5284V31H73.483ZM77.517 22.2727C77.517 23.4015 77.6761 24.3902 77.9943 25.2386C78.3201 26.0871 78.786 26.75 79.392 27.2273C80.0057 27.697 80.7481 27.9318 81.6193 27.9318C82.5284 27.9318 83.2898 27.6894 83.9034 27.2045C84.517 26.7121 84.9792 26.0417 85.2898 25.1932C85.608 24.3371 85.767 23.3636 85.767 22.2727C85.767 21.1894 85.6117 20.2273 85.3011 19.3864C84.9905 18.5455 84.5284 17.8864 83.9148 17.4091C83.3011 16.9318 82.536 16.6932 81.6193 16.6932C80.7405 16.6932 79.9943 16.9242 79.3807 17.3864C78.767 17.8485 78.3011 18.4962 77.983 19.3295C77.6723 20.1629 77.517 21.1439 77.517 22.2727ZM93.4574 31V13.5455H97.571V31H93.4574ZM95.5256 11.0682C94.8741 11.0682 94.3134 10.8523 93.8438 10.4205C93.3741 9.98106 93.1392 9.45454 93.1392 8.84091C93.1392 8.2197 93.3741 7.69318 93.8438 7.26136C94.3134 6.82197 94.8741 6.60227 95.5256 6.60227C96.1847 6.60227 96.7453 6.82197 97.2074 7.26136C97.6771 7.69318 97.9119 8.2197 97.9119 8.84091C97.9119 9.45454 97.6771 9.98106 97.2074 10.4205C96.7453 10.8523 96.1847 11.0682 95.5256 11.0682ZM110.517 13.5455V16.7273H100.483V13.5455H110.517ZM102.96 9.36364H107.074V25.75C107.074 26.303 107.157 26.7273 107.324 27.0227C107.498 27.3106 107.725 27.5076 108.006 27.6136C108.286 27.7197 108.597 27.7727 108.938 27.7727C109.195 27.7727 109.43 27.7538 109.642 27.7159C109.862 27.678 110.028 27.6439 110.142 27.6136L110.835 30.8295C110.616 30.9053 110.301 30.9886 109.892 31.0795C109.491 31.1705 108.998 31.2235 108.415 31.2386C107.384 31.2689 106.456 31.1136 105.631 30.7727C104.805 30.4242 104.15 29.8864 103.665 29.1591C103.188 28.4318 102.953 27.5227 102.96 26.4318V9.36364ZM127.503 18.1591L123.753 18.5682C123.647 18.1894 123.461 17.8333 123.196 17.5C122.938 17.1667 122.59 16.8977 122.151 16.6932C121.711 16.4886 121.173 16.3864 120.537 16.3864C119.681 16.3864 118.961 16.572 118.378 16.9432C117.802 17.3144 117.518 17.7955 117.526 18.3864C117.518 18.8939 117.704 19.3068 118.082 19.625C118.469 19.9432 119.105 20.2045 119.991 20.4091L122.969 21.0455C124.62 21.4015 125.848 21.9659 126.651 22.7386C127.461 23.5114 127.87 24.5227 127.878 25.7727C127.87 26.8712 127.548 27.8409 126.912 28.6818C126.283 29.5152 125.408 30.1667 124.287 30.6364C123.166 31.1061 121.878 31.3409 120.423 31.3409C118.287 31.3409 116.567 30.8939 115.264 30C113.961 29.0985 113.185 27.8447 112.935 26.2386L116.946 25.8523C117.128 26.6402 117.514 27.2348 118.105 27.6364C118.696 28.0379 119.465 28.2386 120.412 28.2386C121.389 28.2386 122.173 28.0379 122.764 27.6364C123.363 27.2348 123.662 26.7386 123.662 26.1477C123.662 25.6477 123.469 25.2348 123.082 24.9091C122.704 24.5833 122.113 24.3333 121.31 24.1591L118.332 23.5341C116.658 23.1856 115.42 22.5985 114.616 21.7727C113.813 20.9394 113.416 19.8864 113.423 18.6136C113.416 17.5379 113.707 16.6061 114.298 15.8182C114.897 15.0227 115.726 14.4091 116.787 13.9773C117.855 13.5379 119.086 13.3182 120.48 13.3182C122.526 13.3182 124.135 13.7538 125.31 14.625C126.491 15.4962 127.223 16.6742 127.503 18.1591ZM139.389 31V7.72727H143.605V17.5795H154.389V7.72727H158.616V31H154.389V21.1136H143.605V31H139.389ZM163.02 31V13.5455H167.134V31H163.02ZM165.088 11.0682C164.437 11.0682 163.876 10.8523 163.406 10.4205C162.937 9.98106 162.702 9.45454 162.702 8.84091C162.702 8.2197 162.937 7.69318 163.406 7.26136C163.876 6.82197 164.437 6.60227 165.088 6.60227C165.747 6.60227 166.308 6.82197 166.77 7.26136C167.24 7.69318 167.474 8.2197 167.474 8.84091C167.474 9.45454 167.24 9.98106 166.77 10.4205C166.308 10.8523 165.747 11.0682 165.088 11.0682ZM186.955 13.5455L180.739 31H176.193L169.977 13.5455H174.364L178.375 26.5114H178.557L182.58 13.5455H186.955ZM196.935 31.3409C195.185 31.3409 193.673 30.9773 192.401 30.25C191.135 29.5152 190.162 28.4773 189.48 27.1364C188.798 25.7879 188.457 24.2008 188.457 22.375C188.457 20.5795 188.798 19.0038 189.48 17.6477C190.17 16.2841 191.132 15.2235 192.366 14.4659C193.601 13.7008 195.052 13.3182 196.719 13.3182C197.795 13.3182 198.81 13.4924 199.764 13.8409C200.726 14.1818 201.575 14.7121 202.31 15.4318C203.052 16.1515 203.635 17.0682 204.06 18.1818C204.484 19.2879 204.696 20.6061 204.696 22.1364V23.3977H190.389V20.625H200.753C200.745 19.8371 200.575 19.1364 200.241 18.5227C199.908 17.9015 199.442 17.4129 198.844 17.0568C198.253 16.7008 197.563 16.5227 196.776 16.5227C195.935 16.5227 195.196 16.7273 194.56 17.1364C193.923 17.5379 193.427 18.0682 193.071 18.7273C192.723 19.3788 192.545 20.0947 192.537 20.875V23.2955C192.537 24.3106 192.723 25.1818 193.094 25.9091C193.465 26.6288 193.984 27.1818 194.651 27.5682C195.317 27.947 196.098 28.1364 196.991 28.1364C197.59 28.1364 198.132 28.053 198.616 27.8864C199.101 27.7121 199.522 27.4583 199.878 27.125C200.234 26.7917 200.503 26.3788 200.685 25.8864L204.526 26.3182C204.283 27.3333 203.821 28.2197 203.139 28.9773C202.465 29.7273 201.601 30.3106 200.548 30.7273C199.495 31.1364 198.291 31.3409 196.935 31.3409Z" fill="black"/>
</svg>
